<svg width="1.13rem" height="1.13rem" viewBox="0 0 16 15" fill="none" xmlns="http://www.w3.org/2000/svg">
<path fill-rule="evenodd" clip-rule="evenodd" d="M11.3335 1.66653V0.999919C11.3335 0.631729 11.632 0.333252 12.0001 0.333252C12.3683 0.333252 12.6668 0.631729 12.6668 0.999919V1.66653H13.3334C14.438 1.66653 15.3334 2.56196 15.3334 3.66653V5.66653V6.99986V10.3332C15.3334 12.5423 13.5426 14.3332 11.3334 14.3332H4.66675C2.45761 14.3332 0.666748 12.5423 0.666748 10.3332V6.99986V5.66653V3.66653C0.666748 2.56196 1.56218 1.66653 2.66675 1.66653H4.00002V0.999919C4.00002 0.631729 4.2985 0.333252 4.66669 0.333252C5.03488 0.333252 5.33336 0.631729 5.33336 0.999919V1.66653H11.3335ZM2.00002 6.99986V10.3331C2.00002 11.8059 3.19393 12.9998 4.66669 12.9998H11.3334C12.8061 12.9998 14 11.8059 14 10.3331V6.99986H2.00002ZM2.66669 2.9998H4.00002V2.99992C4.00002 3.36811 4.2985 3.66659 4.66669 3.66659C5.03488 3.66659 5.33336 3.36811 5.33336 2.99992V2.9998H11.3335V2.99992C11.3335 3.36811 11.632 3.66659 12.0001 3.66659C12.3683 3.66659 12.6668 3.36811 12.6668 2.99992V2.9998H13.3334C13.7015 2.9998 14 3.29828 14 3.66647V5.66647H2.00002V3.66647C2.00002 3.29828 2.2985 2.9998 2.66669 2.9998Z" fill="#696D8C"/>
</svg>
