<svg width="1.13rem" height="1.13rem" viewBox="0 0 16 15" fill="none" xmlns="http://www.w3.org/2000/svg">
<path fill-rule="evenodd" clip-rule="evenodd" d="M14.5221 14.8175C14.9984 14.9233 15.4233 14.4984 15.3175 14.0221L14.5857 10.7293C15.0749 9.73358 15.3334 8.63481 15.3334 7.50002C15.3334 3.44993 12.0501 0.166687 8.00002 0.166687C3.94993 0.166687 0.666687 3.44993 0.666687 7.50002C0.666687 11.5501 3.94993 14.8334 8.00002 14.8334C9.13481 14.8334 10.2336 14.5749 11.2293 14.0857L14.5221 14.8175ZM13.2949 10.3249C13.2198 10.4654 13.1974 10.6283 13.232 10.7839L13.7886 13.2886L11.2839 12.732C11.1283 12.6974 10.9654 12.7198 10.8249 12.7949C9.96327 13.2557 9.00002 13.5 8.00002 13.5C4.68631 13.5 2.00002 10.8137 2.00002 7.50002C2.00002 4.18631 4.68631 1.50002 8.00002 1.50002C11.3137 1.50002 14 4.18631 14 7.50002C14 8.50002 13.7557 9.46327 13.2949 10.3249ZM6.00002 8.83335C6.7364 8.83335 7.33335 8.2364 7.33335 7.50002C7.33335 6.76364 6.7364 6.16669 6.00002 6.16669C5.26364 6.16669 4.66669 6.76364 4.66669 7.50002C4.66669 8.2364 5.26364 8.83335 6.00002 8.83335ZM11.3334 7.50002C11.3334 8.2364 10.7364 8.83335 10 8.83335C9.26364 8.83335 8.66669 8.2364 8.66669 7.50002C8.66669 6.76364 9.26364 6.16669 10 6.16669C10.7364 6.16669 11.3334 6.76364 11.3334 7.50002Z" fill="#6837EF"/>
</svg>
