<svg width="16" height="15" viewBox="0 0 16 15" fill="none" xmlns="http://www.w3.org/2000/svg">
<path fill-rule="evenodd" clip-rule="evenodd" d="M11.3334 1.66653V0.999919C11.3334 0.631729 11.6319 0.333252 12.0001 0.333252C12.3683 0.333252 12.6668 0.631729 12.6668 0.999919V1.66653H13.3334C14.438 1.66653 15.3334 2.56196 15.3334 3.66653V5.66653V6.99986V10.3332C15.3334 12.5423 13.5425 14.3332 11.3334 14.3332H4.66672C2.45758 14.3332 0.666718 12.5423 0.666718 10.3332V6.99986V5.66653V3.66653C0.666718 2.56196 1.56215 1.66653 2.66672 1.66653H3.99999V0.999919C3.99999 0.631729 4.29847 0.333252 4.66666 0.333252C5.03485 0.333252 5.33333 0.631729 5.33333 0.999919V1.66653H11.3334ZM1.99999 6.99986V10.3331C1.99999 11.8059 3.1939 12.9998 4.66666 12.9998H11.3333C12.8061 12.9998 14 11.8059 14 10.3331V6.99986H1.99999ZM2.66666 2.9998H3.99999V2.99992C3.99999 3.36811 4.29847 3.66659 4.66666 3.66659C5.03485 3.66659 5.33333 3.36811 5.33333 2.99992V2.9998H11.3334V2.99992C11.3334 3.36811 11.6319 3.66659 12.0001 3.66659C12.3683 3.66659 12.6668 3.36811 12.6668 2.99992V2.9998H13.3333C13.7015 2.9998 14 3.29828 14 3.66647V5.66647H1.99999V3.66647C1.99999 3.29828 2.29847 2.9998 2.66666 2.9998Z" fill="#060213"/>
</svg>
