<svg width="16" height="16" viewBox="0 0 16 16" fill="none" xmlns="http://www.w3.org/2000/svg">
<path d="M13.1644 6.74741C13.5771 6.38049 13.6143 5.74842 13.2474 5.33564C12.8805 4.92285 12.2484 4.88567 11.8356 5.25259L13.1644 6.74741ZM8 10L7.33564 10.7474C7.71452 11.0842 8.28548 11.0842 8.66436 10.7474L8 10ZM4.16436 5.25259C3.75158 4.88567 3.11951 4.92285 2.75259 5.33564C2.38567 5.74842 2.42285 6.38049 2.83564 6.74741L4.16436 5.25259ZM11.8356 5.25259L7.33564 9.25259L8.66436 10.7474L13.1644 6.74741L11.8356 5.25259ZM8.66436 9.25259L4.16436 5.25259L2.83564 6.74741L7.33564 10.7474L8.66436 9.25259Z" fill="#060213"/>
</svg>
